<?xml version="1.0" encoding="UTF-8" standalone="no"?>
<!-- Created with Inkscape (http://www.inkscape.org/) -->

<svg
   width="210mm"
   height="297mm"
   viewBox="0 0 210 297"
   version="1.1"
   id="svg5"
   inkscape:version="1.1.2 (b8e25be833, 2022-02-05)"
   sodipodi:docname="Truck.svg"
   xmlns:inkscape="http://www.inkscape.org/namespaces/inkscape"
   xmlns:sodipodi="http://sodipodi.sourceforge.net/DTD/sodipodi-0.dtd"
   xmlns="http://www.w3.org/2000/svg"
   xmlns:svg="http://www.w3.org/2000/svg">
  <sodipodi:namedview
     id="namedview7"
     pagecolor="#ffffff"
     bordercolor="#666666"
     borderopacity="1.0"
     inkscape:pageshadow="2"
     inkscape:pageopacity="0.0"
     inkscape:pagecheckerboard="0"
     inkscape:document-units="mm"
     showgrid="false"
     inkscape:zoom="0.77593294"
     inkscape:cx="396.94152"
     inkscape:cy="561.90423"
     inkscape:window-width="1920"
     inkscape:window-height="1057"
     inkscape:window-x="-8"
     inkscape:window-y="-8"
     inkscape:window-maximized="1"
     inkscape:current-layer="layer1" />
  <defs
     id="defs2" />
  <g
     inkscape:label="Layer 1"
     inkscape:groupmode="layer"
     id="layer1">
    <g
       id="g51">
      <path
         style="fill:#b9b9b9;fill-opacity:1;stroke-width:0.421061"
         d="m 78.274808,189.61341 c -5.878418,-1.86567 -9.771037,-6.21051 -10.799409,-12.054 -0.422453,-2.40049 -0.470187,-2.46611 -1.97966,-2.72137 -3.525888,-0.59623 -7.113651,-3.88642 -8.055495,-7.38736 -0.295853,-1.09971 -0.405644,-9.89527 -0.327108,-26.2053 0.110822,-23.01533 0.167256,-24.64216 0.90278,-26.02438 1.098096,-2.06358 2.716864,-3.71376 4.686731,-4.77768 1.660146,-0.89663 2.018859,-0.91108 25.883456,-1.0426 27.486787,-0.15147 27.656427,-0.13708 30.630807,2.59825 2.49314,2.29277 3.14805,3.91172 3.43352,8.4877 l 0.23651,3.79128 4.62956,0.22117 c 3.23893,0.15474 5.03456,0.43965 5.97784,0.94852 1.74729,0.9426 17.56479,16.76279 18.53367,18.53682 0.63532,1.1633 0.77057,2.91127 0.95108,12.29192 l 0.21044,10.93576 1.46638,0.29973 c 3.2216,0.65849 4.37899,4.05808 2.14338,6.29573 -1.17621,1.17728 -1.39544,1.23136 -4.99181,1.23136 h -3.76157 l -0.25308,2.13878 c -0.59234,5.00597 -4.39158,9.98646 -9.01322,11.8156 -3.73312,1.47748 -8.7274,1.38955 -12.20346,-0.21486 -4.50393,-2.07883 -7.7305,-6.29853 -8.60178,-11.24939 l -0.43823,-2.49013 H 107.48025 97.424356 v 1.19681 c 0,1.89621 -1.069824,4.95815 -2.525855,7.22925 -3.316146,5.17248 -10.881872,7.97072 -16.623693,6.14839 z m 7.377853,-7.93971 c 5.522964,-2.79266 5.522964,-10.47682 0,-13.26948 -2.335924,-1.18115 -4.273917,-1.20142 -6.610734,-0.0692 -5.511608,2.67056 -5.532339,10.6738 -0.0347,13.39756 2.306759,1.14287 4.303706,1.12516 6.645438,-0.0589 z m 50.314309,0.14898 c 5.73387,-2.60658 5.74359,-10.95689 0.0158,-13.56037 -2.2664,-1.03016 -4.20553,-1.00824 -6.43652,0.0727 -5.5116,2.67056 -5.53233,10.6738 -0.0347,13.39756 2.19737,1.08867 4.19735,1.11657 6.45545,0.0901 z M 71.653521,164.54867 c 2.561378,-2.6099 3.170493,-3.00405 5.946602,-3.84804 5.23552,-1.59169 10.286155,-0.67724 14.360619,2.60007 0.941808,0.75755 2.098374,2.00249 2.570147,2.76653 l 0.857773,1.38917 h 8.920718 c 7.39278,0 9.08093,-0.11232 9.8561,-0.65577 l 0.93538,-0.65576 V 142.2958 c 0,-21.60065 -0.0657,-23.92169 -0.69653,-24.61942 -0.65909,-0.72895 -1.97129,-0.77036 -24.410414,-0.77036 -23.152722,0 -23.733799,0.0199 -24.555619,0.8425 -0.821697,0.82245 -0.841739,1.40418 -0.841739,24.43269 0,23.02851 0.02004,23.61024 0.841739,24.43268 1.614416,1.61589 3.080702,1.12867 6.215224,-2.06522 z m 65.959459,-24.90636 -7.57126,-7.59393 -3.57739,0.11669 -3.57739,0.11669 -0.11607,6.9345 c -0.0638,3.81398 -0.0224,7.17874 0.092,7.47725 0.16247,0.42375 2.63195,0.54274 11.26472,0.54274 h 11.05664 z"
         id="path63" />
      <path
         style="fill:#a3a3a3;fill-opacity:1;stroke-width:0.421061"
         d="m 78.455507,189.62806 c -3.959365,-1.06853 -7.754454,-4.12958 -9.593715,-7.73812 -0.618137,-1.21275 -1.740018,-5.53172 -1.740018,-6.69864 0,-0.0628 -0.710217,-0.23872 -1.57826,-0.39096 -3.682674,-0.64585 -6.814935,-3.48353 -7.926776,-7.18127 -0.876772,-2.91595 -0.876772,-47.95978 0,-50.87572 0.790874,-2.63028 2.364886,-4.61779 4.784519,-6.04143 l 1.984867,-1.16784 h 25.462587 c 25.284979,0 25.474329,0.006 27.146059,0.90924 3.76529,2.03363 5.30764,4.77649 5.64752,10.04335 l 0.24465,3.79128 4.62956,0.23524 c 3.08867,0.15695 5.04981,0.46302 5.89217,0.9196 2.10539,1.14116 18.19836,17.61185 18.92357,19.36772 0.52299,1.26628 0.64685,3.58531 0.64685,12.11103 v 10.54486 h 1.29498 c 1.74652,0 3.75545,1.9982 3.75545,3.73538 0,0.73769 -0.42677,1.76952 -1.01524,2.45462 -0.96019,1.11785 -1.23401,1.18985 -5.05043,1.32791 l -4.03519,0.14597 v 1.23362 c 0,0.67849 -0.36199,2.26448 -0.80441,3.52443 -3.61407,10.29204 -16.36453,13.58308 -24.41632,6.30213 -2.7746,-2.50896 -4.09796,-5.1169 -4.85201,-9.5618 l -0.26799,-1.5797 H 107.56037 97.532797 l -0.28122,2.21158 c -1.105451,8.69345 -10.216188,14.69302 -18.79607,12.37752 z m 8.403064,-8.59208 c 6.852292,-5.47659 0.863491,-16.09869 -7.314127,-12.97278 -5.987191,2.28862 -6.337697,10.73822 -0.567512,13.68095 2.523017,1.28671 5.748237,0.99692 7.881639,-0.70817 z m 50.504299,0 c 3.5039,-2.80043 4.04792,-7.8946 1.17342,-10.98774 -2.33118,-2.50849 -5.8317,-3.20988 -8.94852,-1.79301 -5.60884,2.54974 -5.67282,10.65017 -0.10653,13.48892 2.52301,1.28671 5.74824,0.99692 7.88163,-0.70817 z M 71.02025,165.15791 c 1.369349,-1.56287 2.900264,-2.72921 4.831145,-3.68065 2.554612,-1.25878 3.171646,-1.38982 6.41282,-1.3619 5.119724,0.0441 7.617301,1.10247 10.906324,4.62166 l 2.541532,2.71938 h 8.924729 c 7.71395,0 9.02916,-0.0946 9.6944,-0.69717 0.72834,-0.65974 0.76966,-1.97534 0.76966,-24.50483 0,-21.56212 -0.0657,-23.88032 -0.69653,-24.57802 -0.65909,-0.72895 -1.97129,-0.77036 -24.410414,-0.77036 -23.152722,0 -23.733799,0.0199 -24.555619,0.8425 -0.821697,0.82245 -0.841739,1.40418 -0.841739,24.43269 0,23.02851 0.02004,23.61024 0.841739,24.43268 0.499916,0.50038 1.3972,0.84035 2.209563,0.83719 1.126198,-0.004 1.721933,-0.40946 3.37239,-2.29317 z m 66.59712,-25.50422 -7.56688,-7.58256 h -3.68699 -3.68699 v 7.58256 7.58256 h 11.25386 11.25387 z"
         id="path61" />
      <path
         style="fill:#8c8c8c;fill-opacity:1;stroke-width:0.421061"
         d="m 78.582105,189.55096 c -6.30345,-1.69859 -10.079425,-6.03524 -11.22618,-12.8931 -0.24064,-1.43908 -0.394852,-1.57346 -2.342449,-2.0411 -2.885308,-0.69281 -5.226725,-2.51743 -6.61565,-5.15546 l -1.166479,-2.21553 v -25.06456 -25.06457 l 1.262608,-2.28441 c 1.528338,-2.76519 3.74281,-4.45901 6.659772,-5.09399 1.515087,-0.32981 9.483818,-0.4331 26.168026,-0.33919 23.647327,0.13311 24.013557,0.14801 25.673017,1.04427 3.80736,2.05634 5.3119,4.77351 5.59002,10.09545 l 0.20109,3.84798 4.68009,0.18679 c 3.19615,0.12756 5.08044,0.40189 5.9427,0.8652 2.09392,1.12508 18.19589,17.59992 18.92357,19.36177 0.52269,1.26555 0.64685,3.57991 0.64685,12.05719 v 10.49102 l 1.61247,0.25808 c 1.93848,0.31026 2.97149,1.3482 3.28864,3.30434 0.18723,1.15481 0.0184,1.70579 -0.82279,2.68508 -1.01018,1.17602 -1.23985,1.23868 -5.0445,1.37642 l -3.98614,0.1443 -0.26012,1.96196 c -0.14306,1.07908 -0.80313,3.09935 -1.46682,4.48948 -4.49202,9.40879 -16.79479,11.43352 -24.10694,3.96739 -2.38257,-2.43273 -4.14594,-5.90393 -4.14594,-8.16127 0,-2.40936 0.33248,-2.33554 -10.51898,-2.33554 H 97.519932 l -0.288683,2.00095 c -0.646746,4.48285 -3.879993,9.23369 -7.592973,11.15691 -3.777924,1.95685 -7.244103,2.38138 -11.056171,1.35414 z m 6.504429,-7.3775 c 5.070517,-1.91752 6.396147,-8.94393 2.394013,-12.68931 -5.514081,-5.16032 -14.359761,0.23615 -12.389817,7.55864 0.248205,0.9226 0.861884,2.19993 1.363731,2.83851 1.783297,2.26916 5.842584,3.34706 8.632073,2.29216 z m 50.755656,-0.13194 c 4.93267,-2.11248 6.08531,-8.86767 2.14266,-12.55737 -2.31336,-2.16494 -5.69608,-2.65528 -8.48598,-1.23007 -1.92873,0.98528 -2.81445,1.94223 -3.64979,3.94331 -2.04933,4.90922 1.56179,10.41393 6.83659,10.42153 0.99121,0.001 2.41165,-0.25841 3.15652,-0.5774 z M 70.699162,165.67566 c 1.527302,-2.09179 4.702702,-4.34448 7.086351,-5.02718 0.963546,-0.27598 3.172336,-0.50139 4.908421,-0.50092 4.380693,0.001 7.651524,1.48484 10.695381,4.85148 l 2.221756,2.45736 h 9.083529 c 7.6966,0 9.18451,-0.10108 9.7449,-0.66197 0.58566,-0.5862 0.66136,-3.39117 0.66136,-24.50483 0,-21.59488 -0.0657,-23.91549 -0.69653,-24.61322 -0.65921,-0.72909 -1.97712,-0.77036 -24.596984,-0.77036 h -23.90045 l -0.655169,0.93623 c -0.573892,0.8201 -0.655169,3.83946 -0.655169,24.33896 0,26.47893 -0.144021,25.2964 3.075167,25.24945 1.568331,-0.0229 1.905409,-0.21828 3.027437,-1.755 z m 66.918208,-26.02197 -7.56688,-7.58256 h -3.68699 -3.68699 v 7.58256 7.58256 h 11.25386 11.25387 z"
         id="path59" />
      <path
         style="fill:#767676;fill-opacity:1;stroke-width:0.421061"
         d="m 78.971483,189.56937 c -5.95749,-1.32169 -10.475053,-6.14206 -11.330215,-12.08966 -0.285615,-1.98644 -0.447021,-2.24958 -1.576237,-2.56972 -3.216991,-0.91205 -5.885801,-2.67187 -7.150207,-4.71485 l -1.262608,-2.04008 -0.114864,-25.4952 -0.114865,-25.4952 1.083582,-2.13027 c 1.375932,-2.70503 3.464002,-4.43502 6.215101,-5.1493 2.806343,-0.72862 46.62005,-0.81772 49.9562,-0.10159 4.90837,1.05362 7.54501,4.68358 7.89759,10.87287 l 0.21144,3.71179 4.55207,0.24036 c 2.85633,0.15082 5.08409,0.49305 5.98023,0.91869 0.7855,0.37308 5.32027,4.60459 10.07728,9.40336 7.02632,7.088 8.73628,9.04117 9.11376,10.41004 0.27951,1.01362 0.46559,5.75213 0.467,11.89237 l 0.003,10.20737 1.15739,0.24781 c 3.13097,0.67036 4.19682,2.02967 3.56181,4.54249 -0.49354,1.95303 -2.45806,2.80684 -6.46011,2.80765 l -3.21395,8.5e-4 -0.27832,2.00095 c -0.70526,5.0703 -4.69295,10.12496 -9.41238,11.93081 -4.92736,1.88541 -11.26002,0.85292 -15.18343,-2.47553 -2.37319,-2.0133 -4.56156,-5.93421 -4.99479,-8.94914 l -0.32998,-2.29647 -10.1516,-0.11269 -10.151592,-0.11269 -0.279428,2.00833 c -0.153689,1.10458 -0.836907,3.16562 -1.518264,4.58008 -3.018159,6.26552 -9.818312,9.49523 -16.752966,7.95676 z m 7.855863,-8.32237 c 2.023657,-1.34042 3.6656,-5.04048 3.204929,-7.22219 -0.488517,-2.31359 -2.006839,-4.50863 -3.877736,-5.60605 -2.494011,-1.46292 -6.022078,-1.25603 -8.305262,0.48702 -2.895189,2.21029 -3.862452,6.0184 -2.360316,9.29258 0.847311,1.84686 1.708727,2.74507 3.628523,3.78351 1.89543,1.02525 5.583234,0.67375 7.709862,-0.73487 z m 49.014844,0.79452 c 5.78557,-2.47774 6.09237,-11.03902 0.49282,-13.75218 -8.00482,-3.87861 -15.04977,6.44239 -8.5436,12.51654 1.95158,1.822 5.43371,2.35643 8.05078,1.23564 z M 69.959394,166.5113 c 3.383522,-3.98323 5.888547,-5.54662 9.946637,-6.20769 5.255492,-0.85614 10.230169,0.98807 13.889519,5.14909 l 2.132583,2.42495 h 8.126837 c 9.89791,0 10.84777,-0.25499 11.24847,-3.01965 0.14547,-1.00361 0.20674,-11.93442 0.13617,-24.29068 -0.12379,-21.67398 -0.15711,-22.48698 -0.94527,-23.06361 -0.68259,-0.49938 -4.72685,-0.59769 -24.587713,-0.59769 -21.528315,0 -23.843354,0.0658 -24.540408,0.69716 -0.728392,0.65979 -0.769661,1.97763 -0.769661,24.57803 0,22.21818 0.05128,23.92557 0.736521,24.52305 1.77438,1.54715 3.198655,1.48774 4.626315,-0.19296 z m 74.988116,-19.47683 c -0.0965,-0.11098 -3.48131,-3.52313 -7.5219,-7.58256 l -7.34653,-7.38078 h -3.70128 -3.70129 v 7.58256 7.58256 h 11.22318 c 6.17274,0 11.14426,-0.0908 11.04782,-0.20178 z"
         id="path57" />
      <path
         style="fill:#606060;fill-opacity:1;stroke-width:0.421061"
         d="m 78.274808,189.41453 c -2.353882,-0.61398 -4.332948,-1.7898 -6.341991,-3.76797 -2.316667,-2.28107 -3.812154,-5.25394 -4.280085,-8.50838 -0.328393,-2.28395 -0.332055,-2.2885 -2.081287,-2.58739 -3.538854,-0.60468 -6.381764,-2.9525 -7.47942,-6.17688 -0.973656,-2.86013 -0.974584,-49.59934 -10e-4,-52.36118 0.765634,-2.17202 2.688565,-4.29945 5.03253,-5.56774 1.660448,-0.89845 2.007988,-0.91262 25.406271,-1.03592 15.893274,-0.0838 24.435904,0.0256 25.883454,0.3314 1.22138,0.25801 3.00589,1.07511 4.10497,1.87962 2.71886,1.99015 3.7917,4.38346 4.05764,9.05183 l 0.21044,3.69421 4.57674,0.26211 c 2.90491,0.16635 5.07565,0.51163 5.9425,0.94519 1.91222,0.95643 17.43262,16.45421 18.53042,18.50342 0.83677,1.56196 0.91915,2.48435 1.12813,12.63118 l 0.22545,10.94616 1.64909,0.26757 c 1.94802,0.31607 2.77003,1.27265 2.77003,3.2235 0,2.9927 -1.51965,3.8937 -6.5672,3.8937 h -3.07465 l -0.2645,1.5797 c -0.78722,4.70154 -2.99121,8.41385 -6.39466,10.77085 -6.42951,4.45265 -16.48614,2.56146 -20.77291,-3.90643 -1.34686,-2.03215 -2.48778,-5.3602 -2.48778,-7.25682 v -1.1873 H 107.79041 97.533871 l -0.515468,2.62247 c -0.95869,4.87737 -3.777996,8.69539 -7.917851,10.72268 -1.90296,0.93188 -3.015205,1.16602 -5.951724,1.25291 -1.986277,0.0588 -4.179586,-0.0413 -4.87402,-0.22249 z m 7.617282,-7.59568 c 3.040141,-1.38193 4.948754,-5.3413 4.029735,-8.35959 -1.235859,-4.05887 -3.76498,-6.00286 -7.80971,-6.00286 -1.946322,0 -2.578128,0.21168 -4.120241,1.38046 -2.529001,1.91676 -3.378848,3.70989 -3.185944,6.7222 0.351867,5.49461 5.890035,8.62173 11.08616,6.25979 z m 50.5043,0 c 3.13841,-1.4266 4.94604,-5.32318 3.97573,-8.57022 -1.14555,-3.83347 -3.7461,-5.79344 -7.6832,-5.79065 -4.87854,0.003 -8.25979,4.37999 -7.30784,9.45894 0.33482,1.78638 2.44508,4.33826 4.23195,5.11755 1.81342,0.79088 4.77632,0.6967 6.78336,-0.21562 z M 71.391421,165.17458 c 2.757059,-3.01159 5.009082,-4.29991 8.51461,-4.87097 2.845737,-0.46358 6.827532,0.0944 9.155055,1.28287 1.567483,0.80041 4.368148,3.32432 5.958903,5.37006 0.748807,0.96299 0.792325,0.96672 9.771081,0.83889 7.99214,-0.11379 9.10437,-0.21404 9.76957,-0.88064 0.70267,-0.70415 0.75066,-2.28218 0.75066,-24.68388 0,-19.66481 -0.10299,-24.05585 -0.57762,-24.62827 -0.52501,-0.63317 -2.77463,-0.69662 -24.696006,-0.69662 -21.364645,0 -24.193896,0.0756 -24.77975,0.66196 -0.585839,0.58638 -0.66063,3.38857 -0.654921,24.538 0.0035,13.13182 0.145588,24.0818 0.315652,24.33329 0.498952,0.73785 1.914998,1.41177 2.995414,1.42557 0.70385,0.009 1.740333,-0.79288 3.477352,-2.69026 z M 144.98258,146.9247 c 0,-0.17135 -3.26497,-3.58351 -7.25549,-7.58256 l -7.25548,-7.27101 h -3.89755 -3.89755 v 7.58256 7.58256 h 11.15303 c 6.13417,0 11.15304,-0.1402 11.15304,-0.31155 z"
         id="path55" />
      <path
         style="fill:#494949;fill-opacity:1;stroke-width:0.421061"
         d="m 77.779939,189.20365 c -2.580639,-0.84762 -4.493375,-2.15294 -6.613755,-4.51347 -1.952561,-2.1737 -2.597225,-3.61254 -3.375974,-7.53491 -0.454617,-2.28979 -0.471307,-2.3091 -2.258418,-2.61286 -3.478135,-0.5912 -6.736134,-3.61793 -7.68303,-7.13764 -0.280039,-1.04093 -0.391215,-10.28078 -0.314757,-26.15939 0.11748,-24.39798 0.123961,-24.56075 1.046712,-26.28733 1.050207,-1.96506 3.053072,-3.80546 5.055368,-4.6453 1.084863,-0.45502 6.342467,-0.56804 26.426309,-0.56804 24.581216,0 25.105666,0.0172 26.791866,0.87821 3.70954,1.89419 5.36048,4.80678 5.70028,10.05641 l 0.23878,3.68892 4.31103,0.24436 c 2.46853,0.13992 5.00535,0.53472 5.93557,0.92374 2.25339,0.94239 17.53252,16.18617 18.79292,18.74945 0.87444,1.77835 0.94229,2.56611 1.08198,12.56346 0.10556,7.5543 0.29016,10.70872 0.63274,10.81208 0.26604,0.0803 0.99129,0.25685 1.61166,0.39239 1.69164,0.3696 2.44943,1.36703 2.44943,3.22404 0,2.87547 -1.41192,3.59663 -7.57564,3.86938 -2.23535,0.0989 -2.31932,0.1458 -2.44696,1.36619 -0.61544,5.88422 -4.56483,10.81086 -10.12582,12.63137 -2.93824,0.96189 -7.86591,0.72281 -10.64896,-0.51667 -4.31225,-1.92052 -7.9805,-6.85905 -8.60748,-11.58813 l -0.26528,-2.00095 H 107.68945 97.440391 l -0.233595,1.15844 c -1.307867,6.48596 -4.23612,10.50859 -9.251997,12.70977 -1.853249,0.81328 -8.051531,0.99389 -10.17486,0.29648 z m 7.998466,-7.15674 c 4.076342,-1.70475 5.668708,-7.48262 3.102186,-11.2562 -1.598735,-2.35064 -2.972325,-3.08218 -6.094893,-3.24599 -2.510046,-0.13168 -3.023836,-0.019 -4.577329,1.00376 -2.349878,1.5471 -3.51095,3.70023 -3.51095,6.51082 0,2.82881 1.493672,5.53378 3.699549,6.69973 1.85786,0.98199 5.39212,1.11983 7.381437,0.28788 z m 50.233305,0.12529 c 2.51642,-0.95432 4.73351,-4.20862 4.75293,-6.97649 0.0192,-2.733 -2.1334,-6.18254 -4.46703,-7.15848 -2.03106,-0.8494 -5.36537,-0.73032 -7.30667,0.26096 -3.51398,1.79434 -4.94859,7.15137 -2.84011,10.60538 1.04685,1.71489 2.60957,3.08287 3.89273,3.40764 1.54307,0.39054 4.76997,0.31538 5.96815,-0.13901 z M 71.135241,165.44415 c 3.23713,-3.5804 5.838774,-4.85528 10.351437,-5.07248 2.207052,-0.10624 4.271707,0.0286 5.260865,0.34371 2.619184,0.83423 5.461343,2.85196 7.162779,5.08506 l 1.582653,2.07721 h 8.981335 c 8.97458,0 8.98212,-8.4e-4 10.01438,-1.03398 l 1.03304,-1.03399 v -23.51559 c 0,-20.60167 -0.0812,-23.63161 -0.65516,-24.45184 l -0.65518,-0.93623 H 89.876379 c -22.118739,0 -24.387622,0.0634 -24.912635,0.69633 -0.470683,0.56742 -0.59984,4.95427 -0.697643,23.69549 -0.06601,12.64954 -0.01385,23.4305 0.115923,23.9577 0.36803,1.49513 1.754355,2.62211 3.225523,2.62211 1.082327,0 1.733876,-0.44945 3.527694,-2.4335 z M 145.149,147.30753 c 0.11885,-0.19249 -3.25145,-3.80231 -7.48955,-8.02184 l -7.70564,-7.67187 -3.53343,0.12334 -3.53344,0.12334 -0.11554,7.35714 c -0.0636,4.04642 -0.0221,7.60074 0.092,7.89849 0.16169,0.42176 2.62262,0.54137 11.13852,0.54137 6.01203,0 11.02821,-0.15749 11.14707,-0.34997 z"
         id="path53" />
    </g>
  </g>
</svg>
